<?xml version="1.0" encoding="UTF-8" standalone="no"?>
<!-- Created with Inkscape (http://www.inkscape.org/) -->

<svg
   xmlns:dc="http://purl.org/dc/elements/1.1/"
   xmlns:cc="http://creativecommons.org/ns#"
   xmlns:rdf="http://www.w3.org/1999/02/22-rdf-syntax-ns#"
   xmlns:svg="http://www.w3.org/2000/svg"
   xmlns="http://www.w3.org/2000/svg"
   xmlns:sodipodi="http://sodipodi.sourceforge.net/DTD/sodipodi-0.dtd"
   xmlns:inkscape="http://www.inkscape.org/namespaces/inkscape"
   width="797.2804"
   height="1065.9921"
   id="svg4252"
   version="1.1"
   inkscape:version="0.91 r13725"
   sodipodi:docname="extras.svg">
  <defs
     id="defs4254" />
  <sodipodi:namedview
     id="base"
     pagecolor="#ffffff"
     bordercolor="#666666"
     borderopacity="1.0"
     inkscape:pageopacity="0.0"
     inkscape:pageshadow="2"
     inkscape:zoom="0.35"
     inkscape:cx="852.17205"
     inkscape:cy="385.34116"
     inkscape:document-units="px"
     inkscape:current-layer="layer1"
     showgrid="false"
     inkscape:window-width="1280"
     inkscape:window-height="739"
     inkscape:window-x="1911"
     inkscape:window-y="-9"
     inkscape:window-maximized="1"
     inkscape:snap-object-midpoints="true"
     fit-margin-top="0"
     fit-margin-left="0"
     fit-margin-right="0"
     fit-margin-bottom="0"
     inkscape:object-nodes="true"
     inkscape:object-paths="true"
     inkscape:snap-center="true"
     showguides="false"
     inkscape:guide-bbox="true"
     inkscape:snap-smooth-nodes="true">
    <sodipodi:guide
       position="423.31097,533.99607"
       orientation="0,1"
       id="guide3365" />
    <sodipodi:guide
       position="406.44572,534.29442"
       orientation="1,0"
       id="guide3367" />
    <sodipodi:guide
       position="422.53663,166.0149"
       orientation="0,1"
       id="guide3389" />
    <sodipodi:guide
       position="156.20297,1013.5019"
       orientation="-0.8490865,-0.52825384"
       id="guide3401" />
    <sodipodi:guide
       position="179.98116,1013.5019"
       orientation="-0.8490866,0.52825367"
       id="guide3403" />
    <inkscape:grid
       type="xygrid"
       id="grid3405"
       originx="-294.63148"
       originy="2.3228355" />
    <sodipodi:guide
       position="193.4616,1035.1874"
       orientation="0,1"
       id="guide3407" />
    <sodipodi:guide
       position="343.34102,51.820316"
       orientation="1,0"
       id="guide3409"
       inkscape:label=""
       inkscape:color="rgb(0,0,255)" />
    <sodipodi:guide
       position="345.80523,2.5000455"
       orientation="0,1"
       id="guide3413" />
  </sodipodi:namedview>
  <metadata
     id="metadata4257">
    <rdf:RDF>
      <cc:Work
         rdf:about="">
        <dc:format>image/svg+xml</dc:format>
        <dc:type
           rdf:resource="http://purl.org/dc/dcmitype/StillImage" />
        <dc:title></dc:title>
      </cc:Work>
    </rdf:RDF>
  </metadata>
  <g
     inkscape:label="Layer 1"
     inkscape:groupmode="layer"
     id="layer1"
     transform="translate(-294.63149,11.307007)">
    <circle
       inkscape:transform-center-y="-3.9999834"
       inkscape:transform-center-x="314.86606"
       transform="matrix(0.0254036,-0.99967728,0.99967728,0.0254036,0,0)"
       r="52.667324"
       cy="896.039"
       cx="-143.03937"
       id="circle9944"
       style="display:inline;fill:none;stroke:#0000ff;stroke-width:0.35433072;stroke-linecap:butt;stroke-linejoin:miter;stroke-miterlimit:4;stroke-dasharray:none;stroke-opacity:1" />
    <g
       id="g3373">
      <g
         transform="translate(-3.7597656e-6,368.44156)"
         id="g3359" />
    </g>
    <g
       id="g3380">
      <g
         id="g3355" />
    </g>
    <g
       id="g3379"
       transform="translate(-4.724989e-6,367.52082)">
      <g
         id="g3381"
         transform="translate(-3.7597656e-6,368.44156)" />
    </g>
    <g
       transform="matrix(0,-1,1.2244098,0,-175.37686,742.26034)"
       id="g3391">
      <g
         transform="translate(-3.7597656e-6,368.44156)"
         id="g3393" />
    </g>
    <g
       id="g3389">
      <path
         style="display:inline;fill:none;stroke:#0000ff;stroke-width:0.26999894"
         inkscape:connector-curvature="0"
         id="path3991"
         d="m 462.72355,14.649923 -4.13742,2.3752 -4.13742,2.37518 0,4.827 0,4.75037 4.13742,2.37518 4.13742,2.37519 4.13743,-2.37519 4.21404,-2.37518 0,-4.75037 0,-4.827 -4.21404,-2.37518 -4.13743,-2.3752 z"
         class="fil0 str1" />
      <path
         class="fil0 str1"
         d="m 717.1298,143.16876 -4.13742,2.3752 -4.13742,2.37518 0,4.827 0,4.75037 4.13742,2.37518 4.13742,2.37519 4.13743,-2.37519 4.21404,-2.37518 0,-4.75037 0,-4.827 -4.21404,-2.37518 -4.13743,-2.3752 z"
         id="path3002"
         inkscape:connector-curvature="0"
         style="display:inline;fill:none;stroke:#0000ff;stroke-width:0.26999894" />
      <path
         style="display:inline;fill:none;stroke:#0000ff;stroke-width:0.26999894"
         inkscape:connector-curvature="0"
         id="path3004"
         d="m 717.90414,511.14997 -4.13742,2.3752 -4.13742,2.37518 0,4.827 0,4.75037 4.13742,2.37518 4.13742,2.37519 4.13743,-2.37519 4.21404,-2.37518 0,-4.75037 0,-4.827 -4.21404,-2.37518 -4.13743,-2.3752 z"
         class="fil0 str1" />
      <path
         class="fil0 str1"
         d="m 717.1298,879.13114 -4.13742,2.3752 -4.13742,2.37518 0,4.827 0,4.75037 4.13742,2.37518 4.13742,2.37519 4.13743,-2.37519 4.21404,-2.37518 0,-4.75037 0,-4.827 -4.21404,-2.37518 -4.13743,-2.3752 z"
         id="path3006"
         inkscape:connector-curvature="0"
         style="display:inline;fill:none;stroke:#0000ff;stroke-width:0.26999894" />
      <path
         sodipodi:nodetypes="cccccccccccccccccccccccccccscccccssssccccssc"
         inkscape:connector-curvature="0"
         d="m 637.97251,1052.185 28.2231,-28.284 M 450.83446,41.18313 l 23.77818,0 m -23.77818,4e-6 -31.7763,-51.99014 m 31.7763,51.99014 -31.7763,-51.99014 m 55.55448,51.99014 13.4915,-21.68547 m 212.97307,859.462476 0,19.42012 m -1e-5,0 14.91019,7.57614 m -14.91018,-762.95864 0,19.42012 m 0,-19.42012 14.91019,-7.57614 m -14.91019,376.0177 0,19.42012 m 0,-19.42012 14.91019,-7.57614 m -14.91019,26.99626 14.91019,7.57614 m -296.92924,-549.242586 311.67825,-1e-6 c 7.49856,0 13.5353,6.0367449 13.5353,13.5353023 l 0,1035.9215047 c 0,7.4985 -6.03674,13.5353 -13.5353,13.5353 l -92.7639,-10e-5 m 28.2231,-28.284 44.08422,0 c 3.16199,0 5.70757,-2.5456 5.70757,-5.7076 l -10e-6,-112.237 m -14.91019,-26.99626 14.91019,-7.57614 10e-6,-332.94842 m -14.91019,-376.0177 14.91019,7.57614 0,333.86916 M 488.10414,19.497664 710.27983,19.49762 c 3.16199,-1e-6 5.70757,2.545572 5.70757,5.707562 l 0,110.216438"
         style="fill:none;fill-rule:evenodd;stroke:#000000;stroke-width:1px;stroke-linecap:butt;stroke-linejoin:miter;stroke-opacity:1"
         id="path3415" />
    </g>
    <g
       id="g3396"
       transform="matrix(-1,0,0,-1,1039.4032,1041.3781)">
      <path
         class="fil0 str1"
         d="m 462.72355,14.649923 -4.13742,2.3752 -4.13742,2.37518 0,4.827 0,4.75037 4.13742,2.37518 4.13742,2.37519 4.13743,-2.37519 4.21404,-2.37518 0,-4.75037 0,-4.827 -4.21404,-2.37518 -4.13743,-2.3752 z"
         id="path3398"
         inkscape:connector-curvature="0"
         style="display:inline;fill:none;stroke:#0000ff;stroke-width:0.26999894" />
      <path
         style="display:inline;fill:none;stroke:#0000ff;stroke-width:0.26999894"
         inkscape:connector-curvature="0"
         id="path3400"
         d="m 717.1298,143.16876 -4.13742,2.3752 -4.13742,2.37518 0,4.827 0,4.75037 4.13742,2.37518 4.13742,2.37519 4.13743,-2.37519 4.21404,-2.37518 0,-4.75037 0,-4.827 -4.21404,-2.37518 -4.13743,-2.3752 z"
         class="fil0 str1" />
      <path
         class="fil0 str1"
         d="m 717.90414,511.14997 -4.13742,2.3752 -4.13742,2.37518 0,4.827 0,4.75037 4.13742,2.37518 4.13742,2.37519 4.13743,-2.37519 4.21404,-2.37518 0,-4.75037 0,-4.827 -4.21404,-2.37518 -4.13743,-2.3752 z"
         id="path3402"
         inkscape:connector-curvature="0"
         style="display:inline;fill:none;stroke:#0000ff;stroke-width:0.26999894" />
      <path
         style="display:inline;fill:none;stroke:#0000ff;stroke-width:0.26999894"
         inkscape:connector-curvature="0"
         id="path3404"
         d="m 717.1298,879.13114 -4.13742,2.3752 -4.13742,2.37518 0,4.827 0,4.75037 4.13742,2.37518 4.13742,2.37519 4.13743,-2.37519 4.21404,-2.37518 0,-4.75037 0,-4.827 -4.21404,-2.37518 -4.13743,-2.3752 z"
         class="fil0 str1" />
      <path
         id="path3406"
         style="fill:none;fill-rule:evenodd;stroke:#000000;stroke-width:1px;stroke-linecap:butt;stroke-linejoin:miter;stroke-opacity:1"
         d="m 637.97251,1052.185 28.2231,-28.284 M 450.83446,41.18313 l 23.77818,0 m -23.77818,4e-6 -31.7763,-51.99014 m 31.7763,51.99014 -31.7763,-51.99014 m 55.55448,51.99014 13.4915,-21.68547 m 212.97307,859.462476 0,19.42012 m -1e-5,0 14.91019,7.57614 m -14.91018,-762.95864 0,19.42012 m 0,-19.42012 14.91019,-7.57614 m -14.91019,376.0177 0,19.42012 m 0,-19.42012 14.91019,-7.57614 m -14.91019,26.99626 14.91019,7.57614 m -296.92924,-549.242586 311.67825,-1e-6 c 7.49856,0 13.5353,6.0367449 13.5353,13.5353023 l 0,1035.9215047 c 0,7.4985 -6.03674,13.5353 -13.5353,13.5353 l -92.7639,-10e-5 m 28.2231,-28.284 44.08422,0 c 3.16199,0 5.70757,-2.5456 5.70757,-5.7076 l -10e-6,-112.237 m -14.91019,-26.99626 14.91019,-7.57614 10e-6,-332.94842 m -14.91019,-376.0177 14.91019,7.57614 0,333.86916 M 488.10414,19.497664 710.27983,19.49762 c 3.16199,-1e-6 5.70757,2.545572 5.70757,5.707562 l 0,110.216438"
         inkscape:connector-curvature="0"
         sodipodi:nodetypes="cccccccccccccccccccccccccccscccccssssccccssc" />
    </g>
    <g
       transform="matrix(-1,0,0,-1,1510.5434,1043.3781)"
       id="g3408">
      <path
         style="display:inline;fill:none;stroke:#0000ff;stroke-width:0.26999894"
         inkscape:connector-curvature="0"
         id="path3410"
         d="m 462.72355,14.649923 -4.13742,2.3752 -4.13742,2.37518 0,4.827 0,4.75037 4.13742,2.37518 4.13742,2.37519 4.13743,-2.37519 4.21404,-2.37518 0,-4.75037 0,-4.827 -4.21404,-2.37518 -4.13743,-2.3752 z"
         class="fil0 str1" />
      <path
         class="fil0 str1"
         d="m 717.1298,143.16876 -4.13742,2.3752 -4.13742,2.37518 0,4.827 0,4.75037 4.13742,2.37518 4.13742,2.37519 4.13743,-2.37519 4.21404,-2.37518 0,-4.75037 0,-4.827 -4.21404,-2.37518 -4.13743,-2.3752 z"
         id="path3412"
         inkscape:connector-curvature="0"
         style="display:inline;fill:none;stroke:#0000ff;stroke-width:0.26999894" />
      <path
         style="display:inline;fill:none;stroke:#0000ff;stroke-width:0.26999894"
         inkscape:connector-curvature="0"
         id="path3414"
         d="m 717.90414,511.14997 -4.13742,2.3752 -4.13742,2.37518 0,4.827 0,4.75037 4.13742,2.37518 4.13742,2.37519 4.13743,-2.37519 4.21404,-2.37518 0,-4.75037 0,-4.827 -4.21404,-2.37518 -4.13743,-2.3752 z"
         class="fil0 str1" />
      <path
         class="fil0 str1"
         d="m 717.1298,879.13114 -4.13742,2.3752 -4.13742,2.37518 0,4.827 0,4.75037 4.13742,2.37518 4.13742,2.37519 4.13743,-2.37519 4.21404,-2.37518 0,-4.75037 0,-4.827 -4.21404,-2.37518 -4.13743,-2.3752 z"
         id="path3416"
         inkscape:connector-curvature="0"
         style="display:inline;fill:none;stroke:#0000ff;stroke-width:0.26999894" />
      <path
         sodipodi:nodetypes="cccccccccccccccccccccccccccscccccssssccccssc"
         inkscape:connector-curvature="0"
         d="m 637.97251,1052.185 28.2231,-28.284 M 450.83446,41.18313 l 23.77818,0 m -23.77818,4e-6 -31.7763,-51.99014 m 31.7763,51.99014 -31.7763,-51.99014 m 55.55448,51.99014 13.4915,-21.68547 m 212.97307,859.462476 0,19.42012 m -1e-5,0 14.91019,7.57614 m -14.91018,-762.95864 0,19.42012 m 0,-19.42012 14.91019,-7.57614 m -14.91019,376.0177 0,19.42012 m 0,-19.42012 14.91019,-7.57614 m -14.91019,26.99626 14.91019,7.57614 m -296.92924,-549.242586 311.67825,-1e-6 c 7.49856,0 13.5353,6.0367449 13.5353,13.5353023 l 0,1035.9215047 c 0,7.4985 -6.03674,13.5353 -13.5353,13.5353 l -92.7639,-10e-5 m 28.2231,-28.284 44.08422,0 c 3.16199,0 5.70757,-2.5456 5.70757,-5.7076 l -10e-6,-112.237 m -14.91019,-26.99626 14.91019,-7.57614 10e-6,-332.94842 m -14.91019,-376.0177 14.91019,7.57614 0,333.86916 M 488.10414,19.497664 710.27983,19.49762 c 3.16199,-1e-6 5.70757,2.545572 5.70757,5.707562 l 0,110.216438"
         style="fill:none;fill-rule:evenodd;stroke:#000000;stroke-width:1px;stroke-linecap:butt;stroke-linejoin:miter;stroke-opacity:1"
         id="path3418" />
    </g>
  </g>
</svg>
